# xmcd
#
# Track frame offsets: 
#        150
#        10742
#        20352
#        33025
#        44257
#        53464
#        64492
#        76112
#        88695
#        101430
#        112665
#        122487
#        133632
#        142880
#        153385
#        163557
#        174617
#        183697
#        193470
#        202877
#        214655
#        223625
#        231595
#        241550
#        254517
#
# Disc length: 3522 seconds
#
# Revision: 0
# Processed by: cddbd v1.5.2PL0 Copyright (c) Steve Scherf et al.
# Submitted via: ExactAudioCopy v1.0b1
#
DISCID=4b0dc019
DTITLE=Various Artist - Constellation Of Rhythm and Blues
DYEAR=1997
DGENRE=R&B
TTITLE0=The Sheppards - Island Of Love
TTITLE1=Lee Dorsey - You're Breaking Me Up
TTITLE2=Sonny Holiday - School Days
TTITLE3=Bobby Miller - Whoa! (She's All Mine)
TTITLE4=The Sheppards - Give A Hug To Me
TTITLE5=Gene Chandler - I Hate To Be The One To Say
TTITLE6=Wilbert Harrison - Mama Mama Mama
TTITLE7=The Dynettes - Witness To A Heartbreak
TTITLE8=The Mystics - She's Got Everything
TTITLE9=Frankie Ford - Ocean Full Of Tears
TTITLE10=Mill Evans - Things Won't Be The Same
TTITLE11=Billy 'The Kid' Emerson - Aunt Molly (Part 1)
TTITLE12=Billy 'The Kid' Emerson - Aunt Molly (Part 2)
TTITLE13=Carol Vega - I Need You Around
TTITLE14=The Freedoms - Ten Steps To Love
TTITLE15='Rolls' Royce and The Wheels - The Frog
TTITLE16=Al and Bunky - Home Work
TTITLE17=Gene Chandler - Mr. Big Shot
TTITLE18=The Dynettes - New Guy
TTITLE19=Wilbert Harrison - New York World's Fair
TTITLE20=The Mystics - Just A Loser
TTITLE21=Mill Evans - I've got To Have Your Love
TTITLE22=The Freedoms - You Lied
TTITLE23=Sandra Lynn - Sometime
TTITLE24=Lee Dorsey - Organ Grinder Swing
EXTD=
EXTT0=
EXTT1=
EXTT2=
EXTT3=
EXTT4=
EXTT5=
EXTT6=
EXTT7=
EXTT8=
EXTT9=
EXTT10=
EXTT11=
EXTT12=
EXTT13=
EXTT14=
EXTT15=
EXTT16=
EXTT17=
EXTT18=
EXTT19=
EXTT20=
EXTT21=
EXTT22=
EXTT23=
EXTT24=
PLAYORDER=
